<?xml version="1.0" encoding="UTF-8" standalone="no"?>
<!-- Created with Inkscape (http://www.inkscape.org/) -->

<svg
   xmlns:dc="http://purl.org/dc/elements/1.1/"
   xmlns:cc="http://creativecommons.org/ns#"
   xmlns:rdf="http://www.w3.org/1999/02/22-rdf-syntax-ns#"
   xmlns:svg="http://www.w3.org/2000/svg"
   xmlns="http://www.w3.org/2000/svg"
   xmlns:sodipodi="http://sodipodi.sourceforge.net/DTD/sodipodi-0.dtd"
   xmlns:inkscape="http://www.inkscape.org/namespaces/inkscape"
   width="50"
   height="50"
   viewBox="0 0 13.229166 13.229167"
   version="1.1"
   id="svg8"
   inkscape:version="0.92.5 (2060ec1f9f, 2020-04-08)"
   sodipodi:docname="logo.svg"
   inkscape:export-filename="logo.png"
   inkscape:export-xdpi="245"
   inkscape:export-ydpi="245">
  <defs
     id="defs2" />
  <sodipodi:namedview
     id="base"
     pagecolor="#ffffff"
     bordercolor="#666666"
     borderopacity="1.0"
     inkscape:pageopacity="0.0"
     inkscape:pageshadow="2"
     inkscape:zoom="3.959798"
     inkscape:cx="119.02258"
     inkscape:cy="-20.82288"
     inkscape:document-units="mm"
     inkscape:current-layer="layer1"
     showgrid="false"
     units="px"
     inkscape:snap-global="false"
     inkscape:window-width="2488"
     inkscape:window-height="1376"
     inkscape:window-x="72"
     inkscape:window-y="27"
     inkscape:window-maximized="1" />
  <metadata
     id="metadata5">
    <rdf:RDF>
      <cc:Work
         rdf:about="">
        <dc:format>image/svg+xml</dc:format>
        <dc:type
           rdf:resource="http://purl.org/dc/dcmitype/StillImage" />
        <dc:title></dc:title>
      </cc:Work>
    </rdf:RDF>
  </metadata>
  <g
     inkscape:label="Layer 1"
     inkscape:groupmode="layer"
     id="layer1"
     transform="translate(0,-283.77082)">
    <rect
       style="opacity:1;fill:#ffffff;fill-opacity:1;fill-rule:evenodd;stroke:#ff0000;stroke-width:1.32291663;stroke-linecap:round;stroke-linejoin:round;stroke-miterlimit:4;stroke-dasharray:none;stroke-dashoffset:0;stroke-opacity:1;paint-order:normal"
       id="rect862"
       width="11.906248"
       height="11.859007"
       x="0.66145831"
       y="284.47952"
       rx="0.66817343"
       ry="0.48443621" />
    <path
       style="fill:#00f400;fill-opacity:1;fill-rule:evenodd;stroke:#000000;stroke-width:0.10061507px;stroke-linecap:butt;stroke-linejoin:miter;stroke-opacity:1"
       d="m 2.6329743,285.52609 -0.5472818,0.9471 0.3272178,0.0123 -0.00867,3.41293 -0.5047609,0.40777 0.5029471,0.30607 0.5392778,-0.005 0.5956509,-0.3522 -0.5972498,-0.35682 -0.00187,-0.82943 2.0336925,-0.87922 0.013229,-0.61622 0.5624211,-0.0129 -0.00261,-0.85888 -1.5508676,-0.0495 -0.036733,0.87684 0.5596479,0.0451 -0.043304,0.42981 -1.5753115,0.60866 -0.058816,-2.1291 0.3280884,-0.0108 z"
       id="path815"
       inkscape:connector-curvature="0"
       sodipodi:nodetypes="cccccccccccccccccccccc" />
    <path
       style="fill:#0000d0;fill-opacity:1;fill-rule:evenodd;stroke:#000000;stroke-width:0.10061507px;stroke-linecap:butt;stroke-linejoin:miter;stroke-opacity:1"
       d="m 8.4170907,285.39374 -0.5472818,0.9471 0.3272178,0.0123 -0.00867,3.41293 -0.5047609,0.40777 0.5029471,0.30607 0.5392778,-0.005 0.5956509,-0.3522 -0.5972498,-0.35682 -0.00187,-0.82942 2.0336932,-0.87923 0.01323,-0.61622 0.562422,-0.0129 -0.0026,-0.85888 -1.5508686,-0.0495 -0.036733,0.87684 0.5596486,0.0451 -0.0433,0.42981 -1.5753124,0.60866 -0.058816,-2.1291 0.3280884,-0.0108 z"
       id="path815-3"
       inkscape:connector-curvature="0"
       sodipodi:nodetypes="cccccccccccccccccccccc" />
    <path
       style="fill:#ff0000;fill-opacity:1;fill-rule:evenodd;stroke:#000000;stroke-width:0.10061507px;stroke-linecap:butt;stroke-linejoin:miter;stroke-opacity:1"
       d="m 8.385115,290.33181 -0.5472818,0.9471 0.3272178,0.0123 -0.00867,3.41293 -0.5047609,0.40777 0.5029471,0.30607 0.5392778,-0.005 0.5956509,-0.3522 -0.5972498,-0.35682 -0.00187,-0.82942 2.0336919,-0.87923 0.01323,-0.61622 0.562422,-0.0129 -0.0026,-0.85888 -1.5508673,-0.0495 -0.036733,0.87684 0.5596473,0.0451 -0.0433,0.42981 -1.5753111,0.60866 -0.058816,-2.1291 0.3280884,-0.0108 z"
       id="path815-6"
       inkscape:connector-curvature="0"
       sodipodi:nodetypes="cccccccccccccccccccccc" />
    <path
       style="fill:#ffd500;fill-opacity:1;fill-rule:evenodd;stroke:#000000;stroke-width:0.10061507px;stroke-linecap:butt;stroke-linejoin:miter;stroke-opacity:1"
       d="m 2.6555245,290.4306 -0.5472818,0.9471 0.3272178,0.0123 -0.00867,3.41293 -0.5047609,0.40777 0.5029471,0.30607 0.5392778,-0.005 0.5956509,-0.3522 -0.5972498,-0.35682 -0.00187,-0.82942 2.0336924,-0.87923 0.013229,-0.61622 0.5624219,-0.0129 -0.00261,-0.85888 -1.5508677,-0.0495 -0.036733,0.87684 0.5596478,0.0451 -0.043304,0.42981 -1.5753116,0.60866 -0.058816,-2.1291 0.3280884,-0.0108 z"
       id="path815-7"
       inkscape:connector-curvature="0"
       sodipodi:nodetypes="cccccccccccccccccccccc" />
  </g>
</svg>
